<?xml version="1.0" encoding="UTF-8"?>
<svg width="1390px" height="298px" viewBox="0 0 1390 298" version="1.1" xmlns="http://www.w3.org/2000/svg" xmlns:xlink="http://www.w3.org/1999/xlink">
    <title>unruffled</title>
    <g id="Page-1" stroke="none" stroke-width="1" fill="none" fill-rule="evenodd">
        <g id="Desktop" transform="translate(-921.000000, -3210.000000)">
            <g id="unruffled" transform="translate(922.000000, 3211.778627)">
                <g id="Group-8" transform="translate(0.000000, -0.000000)">
                    <path d="M254,159.393206 C274.521376,223.118336 364.50532,294.079187 508.962885,294.079187 C508.182936,264.124928 508.182936,206.340995 508.962885,120.727387 C381.950742,120.727387 296.963114,133.615994 254,159.393206 Z" id="Path-8" stroke="#B51459" fill="#B51459" transform="translate(381.481443, 207.403287) scale(-1, 1) translate(-381.481443, -207.403287) "></path>
                    <path d="M1.13686838e-13,159.393206 C20.5213762,223.118336 110.50532,294.079187 254.962885,294.079187 C254.182936,264.124928 254.182936,206.340995 254.962885,120.727387 C127.950742,120.727387 42.9631139,133.615994 1.13686838e-13,159.393206 Z" id="Path-8" stroke="#E2407A" fill="#E2407A"></path>
                    <path d="M88.5935159,60.6543142 C118.974344,60.6543142 174.4308,78.040246 254.962885,112.81211 L253.999892,112.396314 L253.998404,294.076713 C137.533798,293.479096 58.7122375,184.671726 87.6800343,64.3150008 Z" id="Combined-Shape" stroke="#FB5D99" fill="#FB5D99"></path>
                    <path d="M261.593516,60.6543142 C291.974344,60.6543142 347.4308,78.040246 427.962885,112.81211 L426.999892,112.396314 L426.998404,294.076713 C310.533798,293.479096 231.712238,184.671726 260.680034,64.3150008 Z" id="Combined-Shape" stroke="#E2407A" fill="#E2407A" transform="translate(341.310889, 177.365514) scale(-1, 1) translate(-341.310889, -177.365514) "></path>
                    <path d="M254.658892,9.09494702e-13 C202.132856,49.0723322 175.967214,98.0855299 176.161966,147.039593 C176.356718,195.993657 202.623691,245.006854 254.962885,294.079187 L254.658892,9.09494702e-13 Z" id="Path-7" stroke="#FC78AF" fill="#FC78AF"></path>
                    <path d="M331.792961,4.54747351e-13 C279.844212,49.0723322 253.967214,98.0855299 254.161966,147.039593 C254.356718,195.993657 280.623691,245.006854 332.962885,294.079187 L331.792961,4.54747351e-13 Z" id="Path-7" stroke="#FB5D99" fill="#FB5D99" transform="translate(293.561880, 147.039593) scale(-1, 1) translate(-293.561880, -147.039593) "></path>
                </g>
                <text id="Unruffled" font-family="CaviarDreams-Bold, Caviar Dreams" font-size="176" font-weight="bold" letter-spacing="7.14720812" fill="#343434">
                    <tspan x="570" y="244.221373">Unruffled</tspan>
                </text>
            </g>
        </g>
    </g>
</svg>